<mxfile host="65bd71144e">
    <diagram id="kv6AT8fdVk_8y7ON657W" name="Page-1">
        <mxGraphModel dx="1530" dy="669" grid="1" gridSize="10" guides="1" tooltips="1" connect="1" arrows="1" fold="1" page="1" pageScale="1" pageWidth="827" pageHeight="1169" math="1" shadow="0">
            <root>
                <mxCell id="0"/>
                <mxCell id="1" parent="0"/>
                <mxCell id="2" value="&lt;font style=&quot;font-size: 18px;&quot; face=&quot;Lucida Console&quot;&gt;Transformer&lt;br&gt;Encoder&lt;br&gt;&lt;/font&gt;" style="rounded=1;whiteSpace=wrap;html=1;fillColor=#dae8fc;strokeColor=#6c8ebf;" parent="1" vertex="1">
                    <mxGeometry x="477" y="350" width="140" height="240" as="geometry"/>
                </mxCell>
                <mxCell id="3" value="" style="shape=loopLimit;whiteSpace=wrap;html=1;fontFamily=Lucida Console;fontSize=18;rotation=-90;size=48;rounded=1;arcSize=11;fillColor=#e1d5e7;strokeColor=#9673a6;" parent="1" vertex="1">
                    <mxGeometry x="270.93" y="412.92" width="230.75" height="113.42" as="geometry"/>
                </mxCell>
                <mxCell id="4" value="&lt;span style=&quot;&quot;&gt;&lt;font style=&quot;font-size: 18px;&quot;&gt;Input&lt;br&gt;Projection&lt;/font&gt;&lt;/span&gt;" style="text;html=1;align=center;verticalAlign=middle;resizable=0;points=[];autosize=1;strokeColor=none;fillColor=none;fontSize=16;fontFamily=Lucida Console;rounded=1;labelBackgroundColor=none;" parent="1" vertex="1">
                    <mxGeometry x="321.07" y="439.63" width="130" height="60" as="geometry"/>
                </mxCell>
                <mxCell id="5" value="" style="shape=loopLimit;whiteSpace=wrap;html=1;fontFamily=Lucida Console;fontSize=18;rotation=90;size=84;rounded=1;arcSize=20;fillColor=#e1d5e7;strokeColor=#9673a6;" vertex="1" parent="1">
                    <mxGeometry x="595" y="412.06" width="230.75" height="115.88" as="geometry"/>
                </mxCell>
                <mxCell id="6" value="&lt;span style=&quot;&quot;&gt;&lt;font style=&quot;font-size: 18px;&quot;&gt;Output&lt;br&gt;Projection&lt;/font&gt;&lt;/span&gt;" style="text;html=1;align=center;verticalAlign=middle;resizable=0;points=[];autosize=1;strokeColor=none;fillColor=none;fontSize=16;fontFamily=Lucida Console;rounded=1;labelBackgroundColor=none;" vertex="1" parent="1">
                    <mxGeometry x="643.38" y="440" width="130" height="60" as="geometry"/>
                </mxCell>
                <mxCell id="7" value="&lt;font style=&quot;&quot; face=&quot;Lucida Console&quot;&gt;&lt;span style=&quot;font-size: 18px;&quot;&gt;Time Fragment Segmenter&lt;/span&gt;&lt;br&gt;&lt;/font&gt;" style="rounded=1;whiteSpace=wrap;html=1;fillColor=#d5e8d4;strokeColor=#82b366;" vertex="1" parent="1">
                    <mxGeometry x="198" y="395" width="103" height="146" as="geometry"/>
                </mxCell>
                <mxCell id="11" value="&lt;font style=&quot;&quot; face=&quot;Lucida Console&quot;&gt;&lt;span style=&quot;font-size: 18px;&quot;&gt;Graph&lt;br&gt;Attention Encoder&lt;/span&gt;&lt;br&gt;&lt;/font&gt;" style="rounded=1;whiteSpace=wrap;html=1;fillColor=#dae8fc;strokeColor=#6c8ebf;" vertex="1" parent="1">
                    <mxGeometry x="63" y="394" width="103" height="146" as="geometry"/>
                </mxCell>
                <mxCell id="12" value="" style="shape=flexArrow;endArrow=classic;html=1;fillColor=#bac8d3;strokeColor=none;" edge="1" parent="1" target="11">
                    <mxGeometry width="50" height="50" relative="1" as="geometry">
                        <mxPoint x="30" y="466" as="sourcePoint"/>
                        <mxPoint x="90" y="415.85" as="targetPoint"/>
                    </mxGeometry>
                </mxCell>
                <mxCell id="13" value="" style="shape=flexArrow;endArrow=classic;html=1;fillColor=#bac8d3;strokeColor=none;" edge="1" parent="1" source="11" target="7">
                    <mxGeometry width="50" height="50" relative="1" as="geometry">
                        <mxPoint x="40" y="476" as="sourcePoint"/>
                        <mxPoint x="116" y="476.5960784313726" as="targetPoint"/>
                    </mxGeometry>
                </mxCell>
                <mxCell id="14" value="" style="shape=flexArrow;endArrow=classic;html=1;fillColor=#bac8d3;strokeColor=none;" edge="1" parent="1" source="7" target="3">
                    <mxGeometry width="50" height="50" relative="1" as="geometry">
                        <mxPoint x="50" y="486" as="sourcePoint"/>
                        <mxPoint x="126" y="486.5960784313726" as="targetPoint"/>
                    </mxGeometry>
                </mxCell>
                <mxCell id="15" value="" style="shape=flexArrow;endArrow=classic;html=1;fillColor=#bac8d3;strokeColor=none;" edge="1" parent="1" source="3" target="2">
                    <mxGeometry width="50" height="50" relative="1" as="geometry">
                        <mxPoint x="311" y="478.6026301663983" as="sourcePoint"/>
                        <mxPoint x="345.4399999999998" y="479.00563177670415" as="targetPoint"/>
                    </mxGeometry>
                </mxCell>
                <mxCell id="16" value="" style="shape=flexArrow;endArrow=classic;html=1;fillColor=#bac8d3;strokeColor=none;" edge="1" parent="1" source="2" target="5">
                    <mxGeometry width="50" height="50" relative="1" as="geometry">
                        <mxPoint x="453.00999999999976" y="479.7594273490731" as="sourcePoint"/>
                        <mxPoint x="487" y="479.8380605292348" as="targetPoint"/>
                    </mxGeometry>
                </mxCell>
                <mxCell id="17" value="" style="shape=flexArrow;endArrow=classic;html=1;fillColor=#bac8d3;strokeColor=none;" edge="1" parent="1" source="5">
                    <mxGeometry width="50" height="50" relative="1" as="geometry">
                        <mxPoint x="765.38" y="469.68999999999977" as="sourcePoint"/>
                        <mxPoint x="800.8149999999997" y="469.68999999999977" as="targetPoint"/>
                    </mxGeometry>
                </mxCell>
                <mxCell id="22" value="&lt;font style=&quot;font-size: 20px;&quot;&gt;$$x\in \mathbb{R}^{|\mathcal{N}|\times L}$$&lt;/font&gt;" style="text;html=1;align=center;verticalAlign=middle;resizable=0;points=[];autosize=1;strokeColor=none;fillColor=none;" vertex="1" parent="1">
                    <mxGeometry x="-14" y="335" width="410" height="40" as="geometry"/>
                </mxCell>
                <mxCell id="23" value="&lt;font style=&quot;font-size: 20px;&quot;&gt;$$x\in \mathbb{R}^{|\mathcal{N}|\times L}$$&lt;/font&gt;" style="text;html=1;align=center;verticalAlign=middle;resizable=0;points=[];autosize=1;strokeColor=none;fillColor=none;" vertex="1" parent="1">
                    <mxGeometry x="-171" y="335" width="410" height="40" as="geometry"/>
                </mxCell>
                <mxCell id="25" value="" style="line;strokeWidth=2;html=1;labelBackgroundColor=none;fontSize=20;dashed=1;dashPattern=1 1;" vertex="1" parent="1">
                    <mxGeometry x="91.43" y="355" width="38.57" height="10" as="geometry"/>
                </mxCell>
                <mxCell id="28" value="&lt;font style=&quot;font-size: 20px;&quot;&gt;$$x^{(i)}_f\in \mathbb{R}^{F\times N}$$&lt;/font&gt;" style="text;html=1;align=center;verticalAlign=middle;resizable=0;points=[];autosize=1;strokeColor=none;fillColor=none;" vertex="1" parent="1">
                    <mxGeometry x="160.6" y="270" width="370" height="40" as="geometry"/>
                </mxCell>
                <mxCell id="29" value="&lt;font style=&quot;font-size: 20px;&quot;&gt;$$x^{(i)}\in \mathbb{R}^{1\times L}$$&lt;/font&gt;" style="text;html=1;align=center;verticalAlign=middle;resizable=0;points=[];autosize=1;strokeColor=none;fillColor=none;" vertex="1" parent="1">
                    <mxGeometry x="8" y="270" width="350" height="40" as="geometry"/>
                </mxCell>
                <mxCell id="30" value="" style="line;strokeWidth=2;html=1;labelBackgroundColor=none;fontSize=20;dashed=1;dashPattern=1 4;rotation=90;" vertex="1" parent="1">
                    <mxGeometry x="166.43" y="320" width="38.57" height="10" as="geometry"/>
                </mxCell>
                <mxCell id="31" value="" style="line;strokeWidth=2;html=1;labelBackgroundColor=none;fontSize=20;dashed=1;dashPattern=1 1;" vertex="1" parent="1">
                    <mxGeometry x="248" y="289" width="30" height="10" as="geometry"/>
                </mxCell>
                <mxCell id="32" value="&lt;font style=&quot;font-size: 20px;&quot;&gt;$$x^{(i)}_d\in \mathbb{R}^{D\times N}$$&lt;/font&gt;" style="text;html=1;align=center;verticalAlign=middle;resizable=0;points=[];autosize=1;strokeColor=none;fillColor=none;" vertex="1" parent="1">
                    <mxGeometry x="315" y="268" width="380" height="40" as="geometry"/>
                </mxCell>
                <mxCell id="33" value="" style="line;strokeWidth=2;html=1;labelBackgroundColor=none;fontSize=20;dashed=1;dashPattern=1 1;" vertex="1" parent="1">
                    <mxGeometry x="404" y="287" width="30" height="10" as="geometry"/>
                </mxCell>
                <mxCell id="34" value="&lt;font style=&quot;font-size: 20px;&quot;&gt;$$z^{(i)}\in \mathbb{R}^{D\times N}$$&lt;/font&gt;" style="text;html=1;align=center;verticalAlign=middle;resizable=0;points=[];autosize=1;strokeColor=none;fillColor=none;" vertex="1" parent="1">
                    <mxGeometry x="484" y="270" width="360" height="40" as="geometry"/>
                </mxCell>
                <mxCell id="35" value="&lt;font style=&quot;font-size: 20px;&quot;&gt;$$\hat{x}^{(i)}\in \mathbb{R}^{1\times T}$$&lt;/font&gt;" style="text;html=1;align=center;verticalAlign=middle;resizable=0;points=[];autosize=1;strokeColor=none;fillColor=none;" vertex="1" parent="1">
                    <mxGeometry x="628" y="272" width="400" height="40" as="geometry"/>
                </mxCell>
                <mxCell id="36" value="" style="line;strokeWidth=2;html=1;labelBackgroundColor=none;fontSize=20;dashed=1;dashPattern=1 1;" vertex="1" parent="1">
                    <mxGeometry x="570" y="285" width="30" height="10" as="geometry"/>
                </mxCell>
                <mxCell id="37" value="" style="line;strokeWidth=2;html=1;labelBackgroundColor=none;fontSize=20;dashed=1;dashPattern=1 1;" vertex="1" parent="1">
                    <mxGeometry x="731" y="285" width="30" height="10" as="geometry"/>
                </mxCell>
            </root>
        </mxGraphModel>
    </diagram>
</mxfile>